<?xml version="1.0" standalone="no"?>
<!DOCTYPE svg PUBLIC "-//W3C//DTD SVG 20010904//EN"
 "http://www.w3.org/TR/2001/REC-SVG-20010904/DTD/svg10.dtd">
<svg version="1.0" xmlns="http://www.w3.org/2000/svg"
 width="444.000000pt" height="371.000000pt" viewBox="0 0 444.000000 371.000000"
 preserveAspectRatio="xMidYMid meet">

<g transform="translate(0.000000,371.000000) scale(0.100000,-0.100000)"
fill="#000000" stroke="none">
<path d="M2910 3544 c-126 -33 -240 -117 -315 -229 -38 -58 -53 -64 -95 -40
-39 22 -123 18 -206 -10 l-75 -25 -42 22 c-67 36 -171 32 -263 -10 -66 -29
-79 -31 -165 -29 -85 2 -99 -1 -146 -26 -104 -54 -146 -112 -167 -231 -6 -31
-20 -51 -61 -89 -73 -67 -90 -112 -81 -219 4 -49 2 -109 -5 -152 -18 -108 -2
-170 63 -242 55 -60 96 -85 186 -113 32 -9 81 -34 110 -54 80 -54 162 -62 246
-22 49 23 73 63 81 136 8 72 1 99 -28 99 -27 0 -52 -21 -101 -82 -53 -66 -73
-64 -127 12 l-42 60 -87 0 c-81 0 -88 2 -112 28 -15 15 -32 40 -37 55 -14 36
-14 111 0 161 8 27 8 56 0 101 -17 95 -8 121 48 141 69 25 81 44 81 124 0 58
4 72 30 108 47 65 87 76 170 47 71 -25 105 -20 153 24 58 53 77 61 143 61 55
0 59 -2 98 -45 23 -25 49 -45 58 -45 9 0 38 18 63 40 25 22 56 42 68 44 101
21 144 10 175 -44 29 -51 54 -57 148 -36 82 18 149 9 177 -23 21 -23 37 -87
37 -146 0 -64 19 -91 73 -106 23 -6 48 -16 55 -21 18 -16 14 -87 -8 -136 l-20
-43 25 -49 c29 -57 32 -108 8 -157 -24 -51 -61 -69 -153 -76 -93 -7 -113 -18
-136 -70 -39 -86 -87 -83 -148 9 -60 89 -110 81 -108 -17 1 -64 41 -133 92
-160 67 -36 173 -18 255 45 17 13 68 34 113 46 138 37 201 110 228 264 16 89
25 102 104 156 86 58 147 131 193 228 37 80 41 95 45 185 8 181 -35 304 -143
412 -126 126 -301 180 -455 139z m238 -146 c147 -54 236 -199 237 -383 0 -69
-4 -89 -29 -140 -30 -60 -141 -185 -164 -185 -7 0 -23 24 -36 53 -12 28 -46
88 -75 131 -28 44 -54 91 -57 105 -10 50 -34 92 -81 142 -54 58 -99 87 -167
109 -27 9 -51 21 -53 27 -8 24 70 93 160 140 68 36 169 36 265 1z"/>
<path d="M2515 2806 c-16 -7 -45 -26 -63 -41 -28 -23 -33 -33 -30 -64 3 -32 7
-37 39 -45 30 -7 43 -5 72 13 19 11 43 21 54 21 27 0 70 -35 89 -72 14 -28 14
-34 -7 -95 -26 -74 -20 -96 27 -100 35 -3 53 9 88 61 83 123 -44 336 -199 335
-22 0 -53 -6 -70 -13z"/>
<path d="M1775 2778 c-69 -15 -135 -94 -135 -162 0 -104 99 -189 144 -124 12
16 14 36 9 80 l-6 58 56 0 c61 0 103 14 112 38 3 8 -6 30 -20 49 -46 59 -92
77 -160 61z"/>
<path d="M2193 2648 c-11 -17 -16 -925 -6 -1003 7 -50 12 -60 29 -63 11 -2 29
7 40 19 17 19 20 43 26 253 3 127 6 345 7 485 l1 254 -26 34 c-26 34 -56 43
-71 21z"/>
<path d="M2374 2106 c-27 -42 -48 -476 -24 -491 18 -11 91 6 111 26 17 17 19
36 19 202 0 195 -8 248 -43 272 -30 21 -44 19 -63 -9z"/>
<path d="M2000 2105 c-14 -17 -32 -474 -19 -489 4 -5 28 -5 54 -2 69 11 79 39
80 236 0 172 -7 222 -36 251 -23 23 -62 25 -79 4z"/>
<path d="M2024 1522 c-12 -4 -40 -29 -61 -57 -66 -83 -187 -207 -249 -255 -32
-25 -72 -59 -89 -75 -78 -77 -495 -328 -805 -484 l-175 -88 -110 -7 c-153 -10
-248 -24 -263 -40 -19 -18 -7 -52 21 -60 31 -10 1839 -25 2949 -26 l938 0 16
25 c20 31 15 57 -16 72 -14 6 -95 16 -181 22 -86 6 -174 17 -199 26 -50 18
-363 179 -530 273 -148 83 -315 192 -438 285 -108 82 -318 294 -353 357 l-23
40 -205 -1 c-113 -1 -216 -4 -227 -7z m437 -224 c124 -136 281 -265 489 -403
226 -149 329 -211 441 -264 47 -22 94 -50 105 -62 l19 -22 -250 7 c-137 3
-716 6 -1285 6 l-1035 0 115 66 c63 36 162 91 220 121 58 31 130 75 160 98 30
23 98 70 150 105 139 92 220 159 360 300 69 70 132 129 140 133 8 3 76 6 151
6 l136 1 84 -92z"/>
<path d="M1977 1128 c-92 -110 -299 -374 -313 -400 -13 -25 -12 -29 12 -57 14
-17 35 -31 47 -31 60 0 367 413 367 494 0 28 -18 46 -46 46 -15 0 -38 -18 -67
-52z"/>
<path d="M2362 1168 c-31 -31 -8 -79 115 -253 97 -135 137 -181 204 -231 56
-41 85 -43 101 -10 14 31 -13 80 -110 198 -38 46 -93 117 -122 158 -76 107
-119 150 -150 150 -14 0 -31 -5 -38 -12z"/>
<path d="M2180 788 c0 -126 9 -152 51 -146 36 5 59 59 59 139 0 80 -17 107
-72 116 l-38 6 0 -115z"/>
<path d="M555 269 c-148 -3 -276 -7 -282 -8 -7 0 -13 -13 -13 -28 0 -61 -48
-57 752 -66 793 -8 3089 -2 3151 9 36 6 37 7 37 48 l0 43 -332 6 c-414 9
-2949 6 -3313 -4z"/>
</g>
</svg>
