<svg width="335" height="123" viewBox="0 0 335 123" fill="none" xmlns="http://www.w3.org/2000/svg">
<path d="M66.7646 14.7969C65.7447 15.1052 64.3849 15.6601 63.7572 16.0608C62.2666 16.9548 59.9914 19.236 59.1807 20.7157C58.4223 22.0413 58.2393 22.1029 57.0363 21.3939C55.9118 20.7157 54.1073 20.8082 51.9368 21.5789L50.1585 22.2571L48.5894 21.548C46.628 20.6849 44.4574 20.839 42.2346 22.0413C40.7962 22.7811 40.4824 22.8428 38.5472 22.6578C36.6382 22.4728 36.2982 22.5345 34.6507 23.3052C32.1401 24.4766 31.0156 25.8946 30.571 28.3916C30.2311 30.1796 30.1265 30.3646 29.0542 31.1352C27.1452 32.43 26.2037 35.2352 26.936 37.424C27.119 38.0097 27.0667 38.7495 26.8052 40.0134C26.256 42.4796 26.6222 44.7608 27.799 46.1789C29.185 47.8743 30.9372 49.0149 32.7416 49.3849C33.7092 49.6007 34.7553 50.0322 35.2783 50.4946C37.1089 52.0977 39.2272 52.4676 41.3716 51.6044C43.1499 50.8954 43.7514 50.0014 43.8821 47.751C43.9606 46.7337 43.9083 45.7781 43.7775 45.624C43.3852 45.1924 42.13 45.6548 41.5023 46.4871C39.3579 49.354 39.0179 49.4465 37.7627 47.6586C37.3966 47.1345 36.9258 46.4563 36.7166 46.148C36.4028 45.6856 35.9844 45.624 34.1015 45.6856C31.8786 45.7781 31.8525 45.7781 31.1202 44.7916C30.1265 43.4969 29.8911 41.9556 30.4141 40.0751C30.7279 38.9653 30.7541 38.2871 30.571 37.5473C30.2311 36.1292 30.2834 34.3413 30.6756 34.0022C30.8325 33.8172 31.434 33.6014 31.9571 33.4781C33.2123 33.2007 33.7877 32.5225 33.7354 31.3202C33.6307 29.039 33.7354 28.6074 34.7553 27.4052C35.5921 26.4187 35.9582 26.2029 36.8212 26.2029C37.3966 26.2029 38.3642 26.4187 38.9656 26.6653C40.7439 27.4052 41.4239 27.251 42.7576 25.8946C44.1698 24.4766 44.7974 24.23 46.5757 24.4149C47.6741 24.5383 48.0402 24.754 48.7463 25.7097C49.2432 26.3262 49.7662 26.8195 49.9493 26.8195C50.42 26.8195 51.3091 26.2029 52.0937 25.3398C52.669 24.7232 53.1659 24.5074 54.395 24.4149C56.4087 24.23 57.1147 24.4766 57.4809 25.4014C57.6378 25.833 58.0824 26.4187 58.4485 26.6962C59.0761 27.1894 59.233 27.1894 61.1682 26.6962C63.1557 26.1721 63.9664 26.2337 65.4309 26.8811C66.2155 27.2202 66.66 28.4225 66.7123 30.3337C66.7646 32.7074 66.9738 33.1082 68.4383 33.4781C69.1706 33.6631 69.9028 33.9097 70.0597 34.033C70.5043 34.3721 70.3997 35.9751 69.7982 37.3315L69.2752 38.5954L69.929 39.7977C70.7135 41.154 70.792 42.1713 70.2166 43.4661C69.5105 45.0999 68.5429 45.624 66.2939 45.624C63.9141 45.624 63.4696 45.8706 62.7635 47.4736C61.8482 49.5698 60.4621 49.4157 59.1023 47.0728C57.8208 44.8533 56.3302 45.0383 56.3825 47.4119C56.461 50.0322 58.3439 52.0977 60.7236 52.0977C62.162 52.0977 64.411 51.1728 65.2217 50.2789C65.5878 49.8781 66.3985 49.539 67.4969 49.354C71.1319 48.7683 73.3025 46.3022 73.6686 42.4488C73.8517 40.5067 74.1916 40.0134 76.1792 38.7804C78.6112 37.239 80.128 35.4202 81.2525 32.7383C82.194 30.5495 82.2463 30.2104 82.2463 27.621C82.2463 25.4014 82.1155 24.4149 81.6187 22.8736C80.4157 19.1743 77.4606 16.2766 73.4333 14.8894C70.9227 14.0571 69.3013 14.0262 66.7646 14.7969ZM72.4656 18.0029C74.2701 18.4962 76.0745 19.6676 76.9898 20.9931C79.0558 23.8601 79.7881 27.8984 78.7681 30.6112C77.9313 32.8307 75.1331 36.0676 74.0609 36.0676C73.9301 36.0676 73.6948 35.5435 73.5379 34.8962C73.3548 34.2796 72.518 32.7999 71.655 31.6285C70.792 30.4571 70.0859 29.1931 70.0859 28.8232C70.0859 26.6962 66.7646 23.2743 63.9926 22.5037C63.2603 22.2879 62.5281 22.0413 62.4235 21.9796C62.162 21.7946 63.7834 19.7292 64.2018 19.7292C64.3587 19.7292 64.8817 19.3901 65.4048 18.9894C67.1569 17.5713 69.6936 17.2322 72.4656 18.0029Z" fill="black"/>
<path d="M56.8794 33.3549C55.4149 34.2489 54.918 34.8346 54.918 35.6361C54.918 36.4068 55.1011 36.6226 56.2256 36.9925C56.8271 37.2083 57.1409 37.1158 57.6378 36.6534C58.6315 35.7286 60.0437 35.8827 60.959 37.0233C61.8743 38.1639 61.9005 38.8113 61.1421 40.3835C60.436 41.8015 60.6713 42.6339 61.7959 42.788C62.6327 42.9113 63.3388 42.3564 64.2279 40.9692C64.9863 39.7669 65.0125 38.5339 64.3587 36.8075C63.0511 33.4166 59.4945 31.7519 56.8794 33.3549Z" fill="black"/>
<path d="M38.0504 34.033C36.9781 34.5879 35.6706 36.1601 35.4614 37.1774C35.0691 38.9345 36.6382 41.6165 38.0242 41.6165C38.9134 41.6165 39.5933 40.5992 39.3841 39.551C38.9395 37.4548 38.9395 37.4548 40.6393 37.5473C42.2346 37.6398 43.4114 37.0849 43.4114 36.2834C43.4114 35.821 42.2346 34.4646 41.3977 33.9405C40.6393 33.4781 39.018 33.5398 38.0504 34.033Z" fill="black"/>
<path d="M49.4262 36.9925C49.0863 37.2392 49.034 39.058 49.034 50.2174C49.034 59.7429 49.1124 63.2572 49.3478 63.5346C49.8446 64.1204 50.9692 63.5963 51.3091 62.6407C51.4922 62.0858 51.5968 57.8316 51.6229 50.0324L51.6491 38.2873L51.0215 37.4858C50.3415 36.6226 50.0277 36.5301 49.4262 36.9925Z" fill="black"/>
<path d="M171.946 43.158C169.749 43.5279 166.794 44.8226 164.623 46.3948C160.91 49.1076 158.059 53.6083 156.359 59.373L155.47 62.4249V68.8986C155.47 76.3279 155.758 78.1467 157.772 82.9249C159.315 86.6549 162.427 90.3542 165.539 92.1422C169.278 94.3001 171.187 94.7316 176.653 94.7625C181.099 94.7933 181.465 94.7316 183.217 93.9918C184.263 93.5294 186.12 92.3888 187.349 91.4331C188.604 90.4775 189.676 89.7068 189.729 89.7068C189.807 89.7068 189.859 90.5083 189.859 91.464C189.859 94.9166 189.363 94.6392 195.77 94.6392H201.366V69.0527V43.4662H195.744H190.121V44.4527C190.121 46.2715 189.807 47.782 189.441 47.782C189.232 47.782 188.107 47.1346 186.931 46.364C183.923 44.391 182.093 43.5587 180.157 43.1888C178.248 42.8189 174.273 42.8189 171.946 43.158ZM180.497 55.0264C182.982 55.6429 184.42 56.4444 185.963 58.1399C187.506 59.8662 188.421 61.6234 189.075 64.0587C190.906 70.9331 189.153 77.6843 184.682 81.0444C179.948 84.5895 173.07 83.7572 169.671 79.2256C167.605 76.5128 166.585 72.9677 166.585 68.467C166.585 58.9722 172.704 53.0534 180.497 55.0264Z" fill="black"/>
<path d="M234.082 43.1888C232.905 43.3737 231.519 43.9595 229.165 45.3159C227.361 46.3331 225.687 47.1655 225.425 47.1655C225.059 47.1655 224.85 46.7647 224.615 45.4392C224.432 44.4835 224.17 43.6512 224.013 43.5895C223.856 43.5279 221.346 43.4662 218.417 43.4046L213.134 43.3121V68.9602V94.6392H218.731H224.301L224.484 86.0692C224.746 74.17 225.138 64.3362 225.452 61.9933C225.792 59.4655 226.445 57.955 227.779 56.7219C229.427 55.1805 230.394 54.9031 234.186 54.8722H237.586L239.469 57.0918L241.378 59.3113V76.9753V94.6392H247C251.289 94.6392 252.675 94.5467 252.728 94.2384C252.806 94.0534 252.963 88.5971 253.12 82.1542C253.538 66.0008 253.8 61.9008 254.558 59.9587C255.787 56.8144 257.383 55.3963 260.285 54.8414C263.476 54.2249 267.895 55.7662 268.889 57.8316C269.726 59.558 270.04 64.8602 270.563 87.1482L270.746 94.6392H276.316H281.913V81.1369C281.913 57.3076 281.363 53.6392 277.075 48.5219C275.009 46.0557 273.1 44.761 269.961 43.7128C267.189 42.8189 262.482 42.7572 259.71 43.5895C258.036 44.0828 253.251 46.7031 250.635 48.5527L249.851 49.1076L248.439 47.8128C244.542 44.1753 239.05 42.4181 234.082 43.1888Z" fill="black"/>
<path d="M304.141 43.9286C299.12 45.4391 295.642 48.1828 294.256 51.7279C293.628 53.3 293.55 53.9166 293.471 57.5234C293.419 59.9587 293.498 62.3016 293.681 63.3805C293.968 65.0143 294.178 65.3843 295.877 67.3572C298.885 70.9023 302.18 72.567 310.575 74.879C316.825 76.5745 318.002 77.2527 318.002 78.979C318.002 80.0579 316.563 82.0309 315.177 82.8016C312.928 84.0655 307.776 83.1407 301.683 80.3354C299.983 79.5647 298.388 78.9173 298.126 78.9173C297.734 78.9173 294.831 82.9865 292.948 86.2234L292.373 87.179L293.602 88.4737C295.93 90.8782 301.997 93.8685 306.103 94.5775C312.379 95.7181 319.231 95.0091 322.813 92.882C325.481 91.3098 328.07 87.6106 329.142 83.8497C329.874 81.3219 329.796 75.9888 329.011 73.6151C327.311 68.467 324.33 66.3707 314.367 63.3497C311.411 62.4557 308.456 61.4692 307.802 61.161C304.35 59.5579 303.827 57.5542 306.443 55.982C309.895 53.9166 311.934 54.1632 320.198 57.6467L322.5 58.6331L323.546 57.4309C324.775 56.0437 326.605 53.1151 327.416 51.2038L327.991 49.8166L327.259 49.1384C326.37 48.2752 322.186 45.8399 319.858 44.7918C317.269 43.6203 314.628 43.1888 310.418 43.1888C307.253 43.1888 306.207 43.3121 304.141 43.9286Z" fill="black"/>
<path d="M106.07 43.7127C105.992 43.8977 106.436 45.439 107.09 47.1653C108.738 51.5736 122.86 84.0345 126.913 92.7586L128.273 95.6255L128.927 94.7007C129.947 93.2518 131.437 89.9225 141.662 66.1856C146.919 54.0089 151.129 43.9593 151.051 43.836C150.397 43.0653 140.119 43.6819 138.943 44.545C138.132 45.1924 137.086 47.5044 132.692 58.4172C130.496 63.8428 128.639 68.2511 128.508 68.2202C128.404 68.1894 126.076 62.7638 123.33 56.1668L118.335 44.1443L117.42 43.9593C115.537 43.5586 106.253 43.3736 106.07 43.7127Z" fill="black"/>
<path d="M54.0027 50.3714C53.3751 50.9263 53.1397 53.0534 53.1136 58.4789L53.0874 62.8872H54.2381C54.9442 62.8872 55.598 62.6714 55.9641 62.3323C56.5394 61.8083 56.5656 61.5308 56.5917 57.1534C56.6179 52.1286 56.3825 50.8646 55.2842 50.2789C54.4996 49.8474 54.6042 49.8474 54.0027 50.3714Z" fill="black"/>
<path d="M44.3267 50.7722C44.2221 51.0804 44.0652 53.9165 44.0129 57.0917L43.856 62.8872H45.0328C46.8111 62.8872 47.0726 62.4865 47.3864 59.4654C47.7264 55.9203 47.4387 52.0361 46.7588 51.0188C46.1311 50.0631 44.6144 49.9398 44.3267 50.7722Z" fill="black"/>
<path d="M44.248 65.7234C42.8097 67.943 37.9717 72.8753 36.1411 73.9851C35.5396 74.355 34.912 74.9407 34.7551 75.249C34.6243 75.5881 34.3628 75.8347 34.2059 75.8347C34.049 75.8347 32.7152 76.667 31.2769 77.6843C28.0864 79.9039 19.8226 84.6512 14.6446 87.2407L10.8526 89.152L6.53765 89.4603C1.62118 89.8302 0.967391 90.0151 1.09815 91.0324C1.15045 91.5873 1.41197 91.7723 2.35342 91.9573C3.0072 92.0806 24.9744 92.2964 51.152 92.3888L98.7999 92.543L99.3491 91.8956C99.9245 91.2174 99.846 90.4776 99.1399 90.046C98.9045 89.8918 96.8386 89.6761 94.5373 89.5527C91.3206 89.3986 90.0654 89.2136 89.1762 88.7821C76.1789 82.4009 70.1641 78.8249 63.4955 73.5535C61.6649 72.1046 57.3499 67.5114 56.5654 66.1858L55.8854 65.0452H50.3152C44.8234 65.0452 44.6926 65.0452 44.248 65.7234ZM55.9377 70.6866C57.0361 71.9197 58.3437 73.2761 58.8405 73.7076C59.3374 74.1392 60.828 75.4031 62.1095 76.5129C65.4045 79.3182 78.3757 87.549 79.5525 87.549C79.7355 87.549 80.4939 87.9806 81.2 88.4738L82.5076 89.3986L50.2106 89.3678L17.9135 89.337L22.3593 86.8091C24.8175 85.4219 27.4065 84.0039 28.1126 83.6956C28.8448 83.3565 29.8909 82.6783 30.4662 82.1542C31.0416 81.661 32.4014 80.6745 33.4736 80.0272C36.1672 78.3625 39.2008 76.0197 40.1423 74.9099C40.5868 74.4167 41.0837 73.9851 41.2668 73.9851C41.4498 73.9851 42.6266 72.8136 43.8819 71.3956C45.1372 69.9776 46.3925 68.7445 46.6801 68.652C46.9678 68.5903 48.7199 68.4979 50.5767 68.467L53.9502 68.4362L55.9377 70.6866Z" fill="black"/>
<path d="M43.7252 75.2797C43.0453 76.1737 41.0055 78.7323 39.1749 80.9827C37.3181 83.2331 35.8275 85.2677 35.8275 85.5143C35.8275 85.7609 36.1936 86.3158 36.6382 86.7474C37.4227 87.5489 37.4489 87.5489 38.2334 87.0248C39.201 86.3158 43.176 81.5068 44.7713 79.0406C47.0726 75.5263 47.3341 73.9541 45.6604 73.7384C45.0851 73.6459 44.719 73.9233 43.7252 75.2797Z" fill="black"/>
<path d="M53.3489 74.324C52.9828 75.0946 53.7151 76.6668 55.6241 79.2563C56.3041 80.2119 57.4547 81.7533 58.1347 82.7398C59.3638 84.4352 61.822 86.624 62.9204 87.0555C63.2865 87.1789 63.6003 87.0555 63.9141 86.6548C64.3325 86.0999 64.3325 86.0074 63.9403 85.0518C63.6788 84.4969 62.6589 83.0789 61.6128 81.8766C60.5929 80.6743 59.1807 78.8555 58.4746 77.8383C55.9641 74.2623 55.3887 73.6766 54.4734 73.6766C53.8981 73.6766 53.532 73.8616 53.3489 74.324Z" fill="black"/>
<path d="M48.9032 83.6031C48.9032 86.7783 49.0863 87.2407 50.2631 87.2407C51.2045 87.2407 51.7799 85.946 51.7799 83.7573C51.7799 81.6919 51.4137 81.0753 50.0016 80.8595L48.9032 80.6746V83.6031Z" fill="black"/>
<path d="M6.01483 96.5195C3.34738 96.612 1.15066 96.7353 1.12451 96.7662C1.0722 96.7662 1.04605 97.1977 1.04605 97.691C1.04605 98.3383 1.20296 98.6466 1.62138 98.8316C2.43208 99.1398 85.829 99.3556 93.4914 99.0474L99.5062 98.8007V97.7218V96.6428L92.5761 96.4579C83.2139 96.1804 12.082 96.2421 6.01483 96.5195Z" fill="black"/>
<path d="M137.557 107.278C137.557 107.432 137.74 107.587 137.949 107.587C138.263 107.587 138.341 108.203 138.341 111.286C138.341 114.461 138.289 114.985 137.897 115.263C137.53 115.509 137.713 115.571 138.733 115.571C139.753 115.571 139.936 115.509 139.596 115.263C139.178 114.985 139.126 114.43 139.126 110.978V106.97H138.341C137.923 106.97 137.557 107.093 137.557 107.278Z" fill="black"/>
<path d="M124.219 107.587C124.219 107.741 124.376 107.895 124.559 107.895C124.742 107.895 125.448 109.621 126.155 111.748C127.122 114.708 127.514 115.602 127.881 115.602C128.168 115.602 128.456 115.232 128.639 114.584C129.79 110.7 130.862 107.895 131.202 107.895C131.411 107.895 131.489 107.741 131.411 107.587C131.333 107.402 130.836 107.278 130.339 107.278C129.842 107.278 129.45 107.402 129.45 107.587C129.45 107.741 129.58 107.895 129.711 107.895C129.868 107.895 129.973 108.08 129.973 108.326C129.973 108.943 128.404 113.721 128.142 113.906C127.985 114.029 127.384 112.396 126.102 108.265C126.05 108.08 126.181 107.895 126.442 107.895C126.678 107.895 126.782 107.741 126.704 107.587C126.625 107.402 126.024 107.278 125.37 107.278C124.742 107.278 124.219 107.402 124.219 107.587Z" fill="black"/>
<path d="M159.184 107.494C158.844 107.864 159.001 108.511 159.393 108.511C159.602 108.511 159.785 108.234 159.785 107.895C159.785 107.278 159.498 107.093 159.184 107.494Z" fill="black"/>
<path d="M172.521 108.111C172.312 108.573 171.71 110.33 171.161 111.995C170.638 113.629 169.984 115.139 169.749 115.293C169.435 115.509 169.618 115.571 170.481 115.602C171.475 115.602 171.58 115.54 171.213 115.232C170.847 114.893 170.821 114.708 171.109 114.06C171.397 113.382 171.606 113.29 172.861 113.29C174.116 113.29 174.325 113.382 174.613 114.06C174.901 114.708 174.875 114.893 174.509 115.232C174.142 115.54 174.299 115.602 175.476 115.602C176.731 115.602 176.836 115.571 176.391 115.17C176.13 114.954 175.372 113.105 174.692 111.101C174.038 109.128 173.358 107.432 173.201 107.371C173.018 107.278 172.73 107.617 172.521 108.111ZM173.541 110.793C173.855 111.717 174.038 112.55 173.959 112.642C173.75 112.92 171.867 112.858 171.736 112.581C171.58 112.303 172.599 109.128 172.835 109.128C172.913 109.128 173.253 109.899 173.541 110.793Z" fill="black"/>
<path d="M187.087 107.617C186.826 108.141 187.427 108.727 187.794 108.295C188.107 107.925 187.898 107.278 187.506 107.278C187.375 107.278 187.192 107.432 187.087 107.617Z" fill="black"/>
<path d="M195.717 107.617C195.456 108.141 196.057 108.727 196.423 108.295C196.737 107.925 196.528 107.278 196.136 107.278C196.005 107.278 195.822 107.432 195.717 107.617Z" fill="black"/>
<path d="M210.781 107.556C210.781 107.71 211.016 107.895 211.304 107.987C211.774 108.141 211.827 108.419 211.827 111.563C211.827 114.831 211.801 115.016 211.251 115.293C210.781 115.509 210.911 115.571 211.957 115.571C212.977 115.571 213.16 115.509 212.82 115.263C212.428 115.016 212.35 114.492 212.376 111.964V108.974L213.553 111.656C214.206 113.228 214.86 114.369 215.096 114.369C215.331 114.369 215.985 113.228 216.639 111.656L217.815 108.974V111.964C217.842 114.492 217.763 115.016 217.397 115.263C217.031 115.509 217.266 115.571 218.365 115.571C219.463 115.571 219.698 115.509 219.358 115.263C218.94 114.985 218.888 114.461 218.888 111.44C218.888 108.481 218.966 107.895 219.28 107.895C219.489 107.895 219.672 107.741 219.672 107.587C219.672 107.124 218.208 107.217 217.868 107.71C217.711 107.926 217.109 109.251 216.534 110.638C215.959 112.026 215.383 113.105 215.279 113.012C215.174 112.95 214.573 111.625 213.919 110.084C212.768 107.278 212.768 107.278 211.774 107.278C211.225 107.278 210.781 107.402 210.781 107.556Z" fill="black"/>
<path d="M233.428 107.741C233.349 108.018 233.454 108.295 233.689 108.419C234.186 108.634 234.422 108.357 234.238 107.741C234.029 107.155 233.637 107.155 233.428 107.741Z" fill="black"/>
<path d="M251.237 107.494C250.897 107.864 251.054 108.511 251.446 108.511C251.655 108.511 251.838 108.234 251.838 107.895C251.838 107.278 251.551 107.093 251.237 107.494Z" fill="black"/>
<path d="M270.458 107.648C269.752 108.049 269.464 109.22 269.778 110.33C269.961 110.916 270.432 111.347 271.609 111.902C273.623 112.889 273.806 113.043 273.806 113.752C273.806 115.232 271.687 115.879 270.667 114.677C270.38 114.338 270.144 113.906 270.144 113.752C270.144 113.567 270.04 113.444 269.883 113.444C269.543 113.444 269.543 115.201 269.857 115.416C270.301 115.756 272.446 116.002 273.126 115.786C274.119 115.509 274.59 114.738 274.59 113.444C274.59 112.056 274.146 111.594 272.315 110.947C270.798 110.422 270.223 109.683 270.615 108.665C270.877 108.018 271.086 107.895 272.106 107.895C273.126 107.895 273.335 108.018 273.596 108.665C273.989 109.683 274.329 109.652 274.329 108.542C274.329 107.895 274.172 107.617 273.753 107.463C272.838 107.186 271.138 107.278 270.458 107.648Z" fill="black"/>
<path d="M183.06 108.696C183.06 109.159 182.851 109.714 182.616 109.929C182.171 110.33 182.171 110.33 182.616 110.361C182.982 110.361 183.06 110.669 183.06 112.272C183.06 113.351 183.139 114.523 183.217 114.923C183.505 116.095 185.414 116.218 185.78 115.078C186.015 114.369 185.675 114.122 185.309 114.769C185.126 115.047 184.76 115.293 184.525 115.293C184.185 115.293 184.106 114.893 184.106 112.827V110.361H184.891C185.335 110.361 185.675 110.207 185.675 110.053C185.675 109.868 185.335 109.744 184.917 109.744C184.263 109.744 184.132 109.621 184.054 108.912C183.949 107.71 183.06 107.525 183.06 108.696Z" fill="black"/>
<path d="M198.751 108.82C198.751 109.436 198.62 109.744 198.359 109.744C198.149 109.744 197.966 109.868 197.966 110.053C197.966 110.207 198.149 110.361 198.359 110.361C198.673 110.361 198.751 110.823 198.751 112.642C198.751 114.307 198.856 115.077 199.169 115.417C199.875 116.28 201.366 115.941 201.366 114.954C201.366 114.245 200.974 114.184 200.738 114.831C200.555 115.447 199.902 115.417 199.692 114.8C199.614 114.523 199.536 113.413 199.536 112.334V110.361H200.477C201.026 110.361 201.34 110.238 201.235 110.053C201.157 109.868 200.738 109.744 200.294 109.744C199.614 109.744 199.536 109.652 199.536 108.82C199.536 108.203 199.405 107.895 199.143 107.895C198.882 107.895 198.751 108.203 198.751 108.82Z" fill="black"/>
<path d="M236.671 108.665C236.671 109.097 236.488 109.529 236.278 109.621C236.069 109.744 235.886 109.929 235.886 110.083C235.886 110.238 236.069 110.361 236.278 110.361C236.592 110.361 236.671 110.823 236.671 112.796C236.671 114.522 236.775 115.324 237.037 115.571C237.56 116.095 238.789 115.879 239.129 115.232C239.521 114.492 239.103 114.122 238.658 114.831C238.449 115.17 238.135 115.324 237.874 115.201C237.534 115.047 237.455 114.553 237.455 112.673V110.361H238.24C238.684 110.361 239.024 110.207 239.024 110.053C239.024 109.868 238.684 109.744 238.24 109.744C237.534 109.744 237.455 109.652 237.455 108.819C237.455 108.203 237.324 107.895 237.063 107.895C236.827 107.895 236.671 108.172 236.671 108.665Z" fill="black"/>
<path d="M287.064 108.111C286.96 108.203 286.881 108.573 286.881 108.912C286.881 109.251 286.672 109.714 286.437 109.929C285.992 110.33 285.992 110.33 286.437 110.361C286.803 110.361 286.881 110.669 286.881 112.272C286.881 114.523 287.3 115.725 288.11 115.848C288.843 115.971 289.758 115.417 289.758 114.831C289.758 114.214 289.261 114.245 289.078 114.831C288.973 115.077 288.686 115.293 288.424 115.293C287.98 115.293 287.927 115.047 287.927 112.827V110.361H288.712C289.157 110.361 289.496 110.207 289.496 110.053C289.496 109.868 289.157 109.744 288.712 109.744C288.006 109.744 287.927 109.652 287.927 108.82C287.927 107.956 287.483 107.586 287.064 108.111Z" fill="black"/>
<path d="M132.562 110.546C132.065 111.163 131.934 111.656 131.934 112.889C131.934 114.184 132.039 114.523 132.666 115.17C133.634 116.157 134.941 116.157 135.909 115.17C136.537 114.523 136.641 114.184 136.641 112.889C136.641 110.793 135.857 109.744 134.288 109.744C133.451 109.744 133.059 109.929 132.562 110.546ZM135.046 110.454C135.726 111.039 135.909 113.505 135.36 114.523C134.418 116.218 132.849 115.047 132.849 112.611C132.849 110.577 133.948 109.498 135.046 110.454Z" fill="black"/>
<path d="M141.819 110.207C140.695 111.132 140.538 113.721 141.505 114.954C142.473 116.156 144.33 116.156 144.984 114.923C145.402 114.122 144.931 113.844 144.461 114.615C143.99 115.417 142.761 115.509 142.238 114.769C141.636 113.937 141.767 111.409 142.447 110.638C143.101 109.837 144.225 110.022 144.487 110.977C144.722 111.841 145.141 111.748 145.141 110.854C145.141 110.453 144.957 110.022 144.722 109.929C143.964 109.59 142.395 109.744 141.819 110.207Z" fill="black"/>
<path d="M146.893 109.96C146.788 110.053 146.71 110.423 146.71 110.731C146.71 111.255 146.762 111.255 147.494 110.638C148.148 110.053 148.357 109.991 148.932 110.299C149.299 110.484 149.586 110.916 149.586 111.224C149.586 111.656 149.272 111.841 148.226 112.087C147.128 112.303 146.762 112.55 146.448 113.197C146.108 113.968 146.108 114.091 146.605 114.892C147.076 115.601 147.337 115.756 148.174 115.694C148.749 115.663 149.717 115.632 150.371 115.601C151.312 115.601 151.469 115.54 151.103 115.293C150.737 115.016 150.632 114.553 150.632 113.166C150.632 110.638 150.005 109.744 148.305 109.744C147.625 109.744 146.971 109.837 146.893 109.96ZM149.586 113.536C149.586 114.707 149.194 115.293 148.409 115.293C147.703 115.293 147.233 114.738 147.233 113.844C147.233 113.043 147.86 112.55 148.88 112.519C149.508 112.519 149.586 112.642 149.586 113.536Z" fill="black"/>
<path d="M151.94 110.053C151.94 110.207 152.123 110.361 152.332 110.361C152.96 110.361 152.907 114.831 152.28 115.262C151.914 115.509 152.097 115.571 153.117 115.602C154.11 115.602 154.32 115.509 154.084 115.232C153.901 115.016 153.77 114.029 153.77 112.95C153.77 110.793 154.137 110.176 155.209 110.484C155.836 110.669 155.863 110.793 155.863 112.827C155.863 114.523 155.784 115.016 155.418 115.262C155.052 115.509 155.287 115.571 156.386 115.571C157.484 115.571 157.719 115.509 157.379 115.262C157.013 115.016 156.909 114.553 156.909 113.197C156.909 110.854 156.49 109.929 155.392 109.806C154.921 109.744 154.372 109.868 154.163 110.053C153.927 110.299 153.77 110.299 153.64 110.053C153.431 109.652 151.94 109.652 151.94 110.053Z" fill="black"/>
<path d="M158.347 110.022C158.269 110.207 158.373 110.361 158.582 110.361C159.236 110.361 159.184 114.831 158.556 115.262C158.19 115.509 158.425 115.571 159.498 115.602C160.701 115.602 160.858 115.54 160.491 115.201C160.178 114.923 160.047 114.245 159.995 112.365C159.916 109.96 159.89 109.899 159.21 109.806C158.844 109.744 158.452 109.868 158.347 110.022Z" fill="black"/>
<path d="M162.479 110.207C161.354 111.132 161.198 113.721 162.165 114.954C163.133 116.156 164.989 116.156 165.643 114.923C166.062 114.122 165.591 113.844 165.12 114.615C164.65 115.417 163.42 115.54 162.897 114.8C162.714 114.553 162.557 113.659 162.557 112.827C162.531 111.656 162.662 111.162 163.107 110.638C163.76 109.837 164.885 110.022 165.146 110.977C165.382 111.841 165.8 111.748 165.8 110.854C165.8 110.453 165.617 110.022 165.382 109.929C164.623 109.59 163.054 109.744 162.479 110.207Z" fill="black"/>
<path d="M178.013 110.361C176.156 112.087 177.333 115.91 179.713 115.91C180.471 115.91 181.491 115.108 181.491 114.492C181.491 113.844 181.02 113.968 180.706 114.677C180.366 115.417 179.085 115.509 178.641 114.862C178.144 114.153 177.987 112.303 178.353 111.286C178.824 109.929 179.843 109.714 180.602 110.762C180.942 111.224 181.282 111.594 181.36 111.594C181.7 111.594 181.439 110.114 181.073 109.929C180.21 109.529 178.667 109.744 178.013 110.361Z" fill="black"/>
<path d="M186.46 110.053C186.46 110.207 186.643 110.361 186.852 110.361C187.48 110.361 187.427 114.831 186.8 115.263C186.434 115.509 186.617 115.571 187.637 115.571C188.657 115.571 188.84 115.509 188.5 115.263C188.107 115.016 188.029 114.492 188.029 112.365V109.744H187.244C186.826 109.744 186.46 109.868 186.46 110.053Z" fill="black"/>
<path d="M189.075 110.022C189.075 110.176 189.232 110.361 189.441 110.453C189.624 110.546 190.173 111.748 190.644 113.135C191.246 114.923 191.612 115.602 191.899 115.54C192.135 115.478 192.658 114.399 193.155 112.981C193.599 111.656 194.122 110.484 194.279 110.423C194.907 110.176 194.514 109.744 193.651 109.744C192.762 109.744 192.37 110.207 193.102 110.423C193.39 110.484 193.338 110.916 192.788 112.519L192.109 114.523L191.402 112.673C190.539 110.484 190.513 110.361 191.036 110.361C191.246 110.361 191.429 110.207 191.429 110.053C191.429 109.868 190.906 109.744 190.252 109.744C189.598 109.744 189.075 109.868 189.075 110.022Z" fill="black"/>
<path d="M195.09 110.053C195.09 110.207 195.273 110.361 195.482 110.361C196.11 110.361 196.057 114.831 195.43 115.263C195.064 115.509 195.247 115.571 196.267 115.571C197.287 115.571 197.47 115.509 197.13 115.263C196.737 115.016 196.659 114.492 196.659 112.365V109.744H195.874C195.456 109.744 195.09 109.868 195.09 110.053Z" fill="black"/>
<path d="M201.628 109.929C201.628 110.052 201.785 110.299 201.994 110.484C202.595 111.039 204.06 115.54 203.877 116.31C203.589 117.636 203.275 117.944 202.674 117.513C201.994 117.019 201.889 117.05 201.889 117.605C201.889 117.852 202.203 118.16 202.569 118.252C203.537 118.53 204.007 117.821 205.289 114.06C205.89 112.272 206.544 110.669 206.753 110.484C207.329 109.929 207.198 109.744 206.204 109.744C205.707 109.744 205.289 109.867 205.289 110.052C205.289 110.207 205.42 110.361 205.55 110.361C205.707 110.361 205.812 110.515 205.812 110.7C205.812 111.193 204.713 114.06 204.53 114.06C204.452 114.06 204.164 113.474 203.929 112.734C203.118 110.391 203.118 110.361 203.589 110.361C203.824 110.361 203.929 110.207 203.85 110.052C203.667 109.713 201.628 109.621 201.628 109.929Z" fill="black"/>
<path d="M221.477 110.546C220.98 111.163 220.849 111.656 220.849 112.889C220.849 114.184 220.954 114.523 221.581 115.17C222.549 116.157 223.856 116.157 224.824 115.17C225.452 114.523 225.556 114.184 225.556 112.889C225.556 110.793 224.772 109.744 223.203 109.744C222.366 109.744 221.973 109.929 221.477 110.546ZM223.961 110.454C224.641 111.039 224.824 113.505 224.275 114.523C223.333 116.218 221.764 115.047 221.764 112.611C221.764 110.577 222.863 109.498 223.961 110.454Z" fill="black"/>
<path d="M226.471 110.053C226.471 110.207 226.655 110.361 226.864 110.361C227.491 110.361 227.439 114.831 226.811 115.263C226.445 115.509 226.628 115.571 227.648 115.571C228.381 115.571 228.799 115.478 228.642 115.386C228.407 115.293 228.302 114.523 228.302 113.135C228.302 110.854 228.616 110.238 229.662 110.423C230.211 110.515 230.263 110.669 230.342 112.889C230.394 114.923 230.342 115.263 229.95 115.386C229.688 115.478 230.133 115.54 230.917 115.571C232.016 115.571 232.251 115.509 231.911 115.263C231.545 115.016 231.44 114.554 231.44 113.197C231.44 110.854 231.022 109.929 229.923 109.806C229.453 109.744 228.904 109.868 228.694 110.053C228.459 110.299 228.302 110.299 228.171 110.053C227.962 109.652 226.471 109.652 226.471 110.053Z" fill="black"/>
<path d="M232.748 110.022C232.748 110.207 232.931 110.361 233.14 110.361C233.768 110.361 233.715 114.831 233.088 115.263C232.722 115.509 232.957 115.571 234.055 115.571C234.84 115.54 235.285 115.478 235.049 115.386C234.683 115.263 234.578 114.8 234.526 112.581L234.448 109.899L233.611 109.806C233.114 109.744 232.748 109.837 232.748 110.022Z" fill="black"/>
<path d="M240.933 110.207C240.619 110.484 240.227 111.193 240.096 111.779C239.364 114.954 242.11 117.235 244.019 115.016C245.039 113.783 245.091 111.656 244.124 110.515C243.391 109.621 241.822 109.467 240.933 110.207ZM243.156 110.546C243.627 110.916 243.731 111.317 243.731 112.55C243.731 113.413 243.601 114.368 243.47 114.708C243.13 115.417 241.849 115.509 241.352 114.8C240.829 114.029 240.907 111.471 241.482 110.7C242.084 109.929 242.372 109.898 243.156 110.546Z" fill="black"/>
<path d="M245.824 110.022C245.824 110.176 246.007 110.361 246.216 110.484C246.817 110.762 246.765 114.831 246.164 115.263C245.797 115.509 246.033 115.571 247.131 115.571C248.256 115.571 248.439 115.509 247.994 115.293C247.471 115.047 247.393 114.769 247.393 113.197C247.393 111.841 247.523 111.255 247.863 110.885C248.465 110.238 249.197 110.207 249.38 110.823C249.616 111.563 250.008 111.347 250.008 110.515C250.008 109.868 249.877 109.744 249.197 109.744C248.753 109.744 248.177 109.899 247.89 110.053C247.55 110.269 247.393 110.269 247.393 110.053C247.393 109.899 247.053 109.744 246.608 109.744C246.19 109.744 245.824 109.868 245.824 110.022Z" fill="black"/>
<path d="M250.4 110.022C250.322 110.207 250.426 110.361 250.635 110.361C251.289 110.361 251.237 114.831 250.609 115.262C250.243 115.509 250.479 115.571 251.551 115.602C252.754 115.602 252.911 115.54 252.544 115.201C252.231 114.923 252.1 114.245 252.048 112.365C251.969 109.96 251.943 109.899 251.263 109.806C250.897 109.744 250.505 109.868 250.4 110.022Z" fill="black"/>
<path d="M253.538 110.053C253.46 110.207 253.564 110.361 253.774 110.361C254.427 110.361 254.375 114.831 253.747 115.263C253.381 115.509 253.617 115.571 254.715 115.571C255.813 115.571 256.049 115.509 255.709 115.263C255.343 115.016 255.238 114.554 255.238 113.259C255.238 111.163 255.578 110.361 256.441 110.361C257.226 110.361 257.592 111.317 257.592 113.444C257.592 114.554 257.461 115.047 257.147 115.263C256.781 115.509 256.964 115.571 257.984 115.571C259.004 115.571 259.187 115.509 258.847 115.263C258.481 115.016 258.376 114.523 258.376 113.043C258.376 110.638 257.906 109.744 256.703 109.744C256.258 109.744 255.735 109.899 255.578 110.084C255.369 110.33 255.238 110.33 255.133 110.084C254.898 109.652 253.747 109.652 253.538 110.053Z" fill="black"/>
<path d="M260.495 110.546C259.684 111.748 259.736 114.029 260.599 115.108C261.253 115.941 262.639 116.218 262.953 115.601C263.24 115.047 263.607 115.293 263.607 116.033C263.607 117.667 261.985 118.314 260.991 117.081L260.468 116.403V117.204C260.468 117.913 260.599 118.037 261.462 118.222C262.56 118.438 263.58 118.098 264.13 117.328C264.365 116.989 264.522 115.663 264.6 113.567C264.705 111.07 264.81 110.361 265.097 110.361C265.306 110.361 265.385 110.207 265.306 110.053C265.097 109.652 264.051 109.652 263.685 110.083C263.476 110.33 263.345 110.33 263.24 110.083C263.136 109.898 262.587 109.744 262.037 109.744C261.253 109.744 260.913 109.929 260.495 110.546ZM263.345 110.947C263.476 111.286 263.607 112.149 263.607 112.858C263.607 114.923 262.404 115.971 261.41 114.8C260.913 114.214 260.834 111.286 261.305 110.731C261.802 110.145 263.031 110.268 263.345 110.947Z" fill="black"/>
<path d="M275.375 110.022C275.375 110.176 275.532 110.361 275.741 110.453C276.133 110.638 277.728 115.139 277.728 116.095C277.728 116.434 277.571 116.989 277.362 117.328C277.022 117.821 276.891 117.852 276.447 117.513C275.767 117.05 275.636 117.05 275.636 117.574C275.636 118.129 276.499 118.499 277.179 118.222C277.65 118.037 277.859 117.605 279.559 112.735C280.003 111.44 280.5 110.361 280.631 110.361C280.762 110.361 280.866 110.207 280.866 110.053C280.866 109.868 280.448 109.744 279.951 109.744C279.062 109.744 278.67 110.207 279.402 110.423C279.716 110.484 279.664 110.823 279.193 112.118C278.879 113.012 278.539 113.814 278.461 113.937C278.356 114.029 277.964 113.351 277.598 112.365C276.813 110.268 276.839 110.361 277.336 110.361C277.545 110.361 277.728 110.207 277.728 110.053C277.728 109.868 277.205 109.744 276.552 109.744C275.898 109.744 275.375 109.868 275.375 110.022Z" fill="black"/>
<path d="M281.756 110.515C281.39 111.193 281.363 111.378 281.703 111.933C281.913 112.303 282.592 112.827 283.22 113.105C284.188 113.536 284.397 113.752 284.397 114.368C284.397 115.047 284.266 115.139 283.429 115.232C282.671 115.293 282.383 115.17 282.122 114.708C281.703 113.875 281.39 113.875 281.39 114.677C281.39 115.078 281.651 115.417 282.069 115.602C283.743 116.372 285.312 115.602 285.312 114.029C285.312 113.29 285.155 113.043 284.345 112.642C282.671 111.779 282.566 111.717 282.488 111.039C282.357 110.022 283.665 109.744 284.292 110.608C284.868 111.471 285.103 111.471 284.998 110.577C284.92 109.991 284.737 109.899 283.56 109.806C282.357 109.714 282.148 109.806 281.756 110.515Z" fill="black"/>
<path d="M291.432 110.207C290.516 110.947 290.15 112.365 290.516 113.721C290.882 115.201 291.301 115.602 292.582 115.817C293.393 115.941 293.733 115.817 294.361 115.201C294.779 114.769 295.041 114.307 294.91 114.184C294.805 114.06 294.465 114.245 294.125 114.615C293.001 115.848 291.327 115.108 291.327 113.382C291.327 112.889 291.589 112.827 293.288 112.827H295.25L295.093 111.964C294.701 109.991 292.792 109.066 291.432 110.207ZM293.471 110.423C293.707 110.638 293.968 111.132 294.073 111.502C294.23 112.18 294.178 112.211 292.792 112.211C291.196 112.211 291.17 112.18 291.615 111.193C292.138 110.022 292.765 109.775 293.471 110.423Z" fill="black"/>
<path d="M296.034 110.053C296.034 110.207 296.217 110.361 296.427 110.361C297.054 110.361 297.002 114.831 296.374 115.263C296.008 115.509 296.191 115.571 297.211 115.571C298.231 115.571 298.414 115.509 298.074 115.263C297.708 115.047 297.603 114.554 297.603 113.351C297.603 111.563 298.126 110.361 298.911 110.361C299.617 110.361 299.957 111.286 299.957 113.259C299.957 114.554 299.852 115.016 299.512 115.263C299.146 115.509 299.329 115.571 300.349 115.571C301.369 115.571 301.552 115.509 301.212 115.263C300.532 114.8 300.559 111.594 301.212 110.885C302.363 109.652 303.095 110.669 303.095 113.444C303.095 114.554 302.964 115.047 302.651 115.263C302.285 115.509 302.468 115.571 303.487 115.571C304.507 115.571 304.69 115.509 304.35 115.263C303.984 115.016 303.88 114.523 303.88 113.043C303.88 110.731 303.409 109.744 302.311 109.744C301.892 109.744 301.369 109.96 301.16 110.238C300.768 110.669 300.715 110.669 300.323 110.238C299.826 109.652 298.623 109.59 298.153 110.114C297.865 110.423 297.786 110.423 297.682 110.114C297.525 109.683 296.034 109.59 296.034 110.053Z" fill="black"/>
</svg>
